<svg xmlns="http://www.w3.org/2000/svg" viewBox="0 0 64 64">
  <!-- Hunter/Player Avatar -->
  <rect width="64" height="64" fill="#1a1a2e"/>
  <!-- Cloak/Body -->
  <path d="M16,24 L12,58 L52,58 L48,24 Z" fill="#2a1a4a"/>
  <!-- Armor -->
  <ellipse cx="32" cy="44" rx="16" ry="14" fill="#3a3a5a"/>
  <rect x="24" y="30" width="16" height="20" fill="#4a4a6a"/>
  <!-- Helmet -->
  <circle cx="32" cy="22" r="14" fill="#5a5a7a"/>
  <!-- Visor slit -->
  <rect x="22" y="20" width="20" height="4" fill="#1a1a2a"/>
  <!-- Eye glow -->
  <circle cx="26" cy="22" r="2" fill="#00ff88"/>
  <circle cx="38" cy="22" r="2" fill="#00ff88"/>
  <!-- Helmet plume -->
  <path d="M32,8 Q28,14 32,20 Q36,14 32,8" fill="#8b0000"/>
  <!-- Shoulder pads -->
  <circle cx="18" cy="32" r="6" fill="#4a4a6a"/>
  <circle cx="46" cy="32" r="6" fill="#4a4a6a"/>
  <circle cx="18" cy="32" r="4" fill="#5a5a7a"/>
  <circle cx="46" cy="32" r="4" fill="#5a5a7a"/>
  <!-- Belt -->
  <rect x="22" y="48" width="20" height="4" fill="#8b4513"/>
  <rect x="30" y="47" width="4" height="6" fill="#ffd700"/>
</svg>
