<svg xmlns="http://www.w3.org/2000/svg" viewBox="0 0 64 64">
  <!-- Void Lord - S Rank Boss -->
  <rect width="64" height="64" fill="#0a0a15"/>
  <!-- Dark energy aura -->
  <circle cx="32" cy="32" r="28" fill="url(#voidGrad)" opacity="0.5"/>
  <!-- Shadowy body -->
  <ellipse cx="32" cy="42" rx="18" ry="16" fill="#1a0a2a"/>
  <!-- Hood/head -->
  <circle cx="32" cy="22" r="16" fill="#0a0515"/>
  <!-- Void eyes - white glowing -->
  <circle cx="26" cy="20" r="5" fill="#ffffff"/>
  <circle cx="38" cy="20" r="5" fill="#ffffff"/>
  <circle cx="26" cy="20" r="2" fill="#9932cc"/>
  <circle cx="38" cy="20" r="2" fill="#9932cc"/>
  <!-- Tentacle-like appendages -->
  <path d="M14,30 Q8,36 10,44" stroke="#1a0a2a" stroke-width="3" fill="none"/>
  <path d="M50,30 Q56,36 54,44" stroke="#1a0a2a" stroke-width="3" fill="none"/>
  <path d="M20,50 Q16,56 20,60" stroke="#1a0a2a" stroke-width="3" fill="none"/>
  <path d="M44,50 Q48,56 44,60" stroke="#1a0a2a" stroke-width="3" fill="none"/>
  <!-- Floating orbs -->
  <circle cx="16" cy="16" r="3" fill="#9932cc" opacity="0.8"/>
  <circle cx="48" cy="16" r="3" fill="#9932cc" opacity="0.8"/>
  <circle cx="12" cy="36" r="2" fill="#4b0082" opacity="0.8"/>
  <circle cx="52" cy="36" r="2" fill="#4b0082" opacity="0.8"/>
  <!-- Definition for gradient -->
  <defs>
    <radialGradient id="voidGrad">
      <stop offset="0%" stop-color="#4b0082"/>
      <stop offset="100%" stop-color="#0a0a15"/>
    </radialGradient>
  </defs>
</svg>
